<svg width="239" height="60" viewBox="0 0 239 60" fill="none" xmlns="http://www.w3.org/2000/svg">
<path d="M210.46 51H207.975V14.1677H225.553C228.079 14.1677 230.232 15.1201 232.012 17.0248C233.793 18.8882 234.683 21.1656 234.683 23.8571C234.683 26.2174 234.145 28.2671 233.068 30.0062C231.95 31.7453 230.563 32.7598 228.907 33.0497C230.439 33.4638 231.681 34.7681 232.634 36.9627C233.586 39.1574 234.062 41.8075 234.062 44.913C234.062 46.6522 234.104 47.9565 234.186 48.8261C234.269 49.8613 234.435 50.5859 234.683 51H232.199C231.785 50.5031 231.516 49.5921 231.391 48.2671L231.205 42.9876C231.205 40.5031 230.605 38.3706 229.404 36.5901C228.244 34.8509 226.816 33.9814 225.118 33.9814H210.46V51ZM210.46 31.6832H225.118C227.064 31.6832 228.741 30.9379 230.149 29.4472C231.516 27.9979 232.199 26.2174 232.199 24.1056C232.199 22.0352 231.516 20.2547 230.149 18.764C228.741 17.3147 227.064 16.5901 225.118 16.5901H210.46V31.6832Z" fill="black"/>
<path d="M15.3416 49H12.8571V14.5901H0.248447V12.1677H28.0745V14.5901H15.3416V49ZM56.3327 49H32.2955V12.1677H56.3327V14.5901H34.7799V28.7516H54.4694V31.0497H34.7799V46.6398H56.3327V49ZM63.4909 49H61.0064V12.1677H64.4226L86.6586 45.9565V12.1677H89.143V49H85.7269L63.4909 15.7081V49ZM97.0904 49V12.1677H111.687C115.579 12.1677 118.912 13.9275 121.687 17.4472C124.42 20.9255 125.786 25.1491 125.786 30.118C125.786 35.3354 124.42 39.7867 121.687 43.472C118.912 47.1573 115.579 49 111.687 49H97.0904ZM99.5749 46.6398H111.687C114.875 46.6398 117.608 45.0248 119.885 41.795C122.163 38.5652 123.302 34.6729 123.302 30.118C123.302 25.8116 122.163 22.147 119.885 19.1242C117.608 16.1014 114.875 14.5901 111.687 14.5901H99.5749V46.6398Z" fill="black"/>
<rect x="159.161" y="11.465" width="26.3195" height="5.48125" fill="#6A2C70"/>
<rect x="159.307" y="42.3301" width="22.2703" height="5.48125" fill="#6A2C70"/>
<rect x="134" y="27.0405" width="63.0992" height="5.48125" fill="#6A2C70"/>
<rect width="25.8693" height="5.93446" transform="matrix(0.780255 -0.625462 0.738925 0.673788 139.062 27.6424)" fill="#6A2C70"/>
<rect width="25.8693" height="5.93446" transform="matrix(-0.780255 -0.625462 -0.738925 0.673788 163.631 43.7972)" fill="#6A2C70"/>
<ellipse cx="180.565" cy="14.3467" rx="7.42344" ry="6.34671" fill="#6A2C70"/>
<ellipse cx="176.516" cy="45.2148" rx="7.42344" ry="6.34671" fill="#6A2C70"/>
<ellipse cx="191.363" cy="29.6363" rx="7.42344" ry="6.34671" fill="#6A2C70"/>
</svg>
